<mxfile host="app.diagrams.net" modified="2023-11-16T07:56:24.302Z" agent="Mozilla/5.0 (Windows NT 10.0; Win64; x64) AppleWebKit/537.36 (KHTML, like Gecko) Chrome/119.0.0.0 Safari/537.36" etag="QqKl90cTyqeaOZ8q9VFz" version="22.1.2" type="github">
  <diagram name="第 1 页" id="r-a5tPxfovDQRw7EhzH9">
    <mxGraphModel dx="1166" dy="824" grid="1" gridSize="10" guides="1" tooltips="1" connect="1" arrows="1" fold="1" page="1" pageScale="1" pageWidth="827" pageHeight="1169" math="0" shadow="0">
      <root>
        <mxCell id="0" />
        <mxCell id="1" parent="0" />
        <mxCell id="wlc8I1Woqjt-u-lDNjGX-18" style="edgeStyle=orthogonalEdgeStyle;rounded=0;orthogonalLoop=1;jettySize=auto;html=1;" edge="1" parent="1" source="wlc8I1Woqjt-u-lDNjGX-1" target="wlc8I1Woqjt-u-lDNjGX-3">
          <mxGeometry relative="1" as="geometry" />
        </mxCell>
        <mxCell id="wlc8I1Woqjt-u-lDNjGX-19" style="edgeStyle=orthogonalEdgeStyle;rounded=0;orthogonalLoop=1;jettySize=auto;html=1;entryX=0;entryY=0.5;entryDx=0;entryDy=0;" edge="1" parent="1" source="wlc8I1Woqjt-u-lDNjGX-1" target="wlc8I1Woqjt-u-lDNjGX-2">
          <mxGeometry relative="1" as="geometry" />
        </mxCell>
        <mxCell id="wlc8I1Woqjt-u-lDNjGX-23" style="edgeStyle=orthogonalEdgeStyle;rounded=0;orthogonalLoop=1;jettySize=auto;html=1;entryX=0;entryY=0.5;entryDx=0;entryDy=0;" edge="1" parent="1" source="wlc8I1Woqjt-u-lDNjGX-1" target="wlc8I1Woqjt-u-lDNjGX-22">
          <mxGeometry relative="1" as="geometry">
            <Array as="points">
              <mxPoint x="307" y="170" />
              <mxPoint x="307" y="300" />
            </Array>
          </mxGeometry>
        </mxCell>
        <mxCell id="wlc8I1Woqjt-u-lDNjGX-24" style="edgeStyle=orthogonalEdgeStyle;rounded=0;orthogonalLoop=1;jettySize=auto;html=1;entryX=0;entryY=0.5;entryDx=0;entryDy=0;" edge="1" parent="1" source="wlc8I1Woqjt-u-lDNjGX-1" target="wlc8I1Woqjt-u-lDNjGX-21">
          <mxGeometry relative="1" as="geometry">
            <Array as="points">
              <mxPoint x="307" y="170" />
              <mxPoint x="307" y="380" />
            </Array>
          </mxGeometry>
        </mxCell>
        <mxCell id="wlc8I1Woqjt-u-lDNjGX-27" style="edgeStyle=orthogonalEdgeStyle;rounded=0;orthogonalLoop=1;jettySize=auto;html=1;entryX=0;entryY=0.5;entryDx=0;entryDy=0;" edge="1" parent="1" source="wlc8I1Woqjt-u-lDNjGX-1" target="wlc8I1Woqjt-u-lDNjGX-26">
          <mxGeometry relative="1" as="geometry" />
        </mxCell>
        <mxCell id="wlc8I1Woqjt-u-lDNjGX-29" style="edgeStyle=orthogonalEdgeStyle;rounded=0;orthogonalLoop=1;jettySize=auto;html=1;entryX=0;entryY=0.5;entryDx=0;entryDy=0;" edge="1" parent="1" source="wlc8I1Woqjt-u-lDNjGX-1" target="wlc8I1Woqjt-u-lDNjGX-28">
          <mxGeometry relative="1" as="geometry" />
        </mxCell>
        <mxCell id="wlc8I1Woqjt-u-lDNjGX-1" value="s" style="rounded=0;whiteSpace=wrap;html=1;" vertex="1" parent="1">
          <mxGeometry x="140" y="140" width="120" height="60" as="geometry" />
        </mxCell>
        <mxCell id="wlc8I1Woqjt-u-lDNjGX-6" style="edgeStyle=orthogonalEdgeStyle;rounded=0;orthogonalLoop=1;jettySize=auto;html=1;" edge="1" parent="1" source="wlc8I1Woqjt-u-lDNjGX-2" target="wlc8I1Woqjt-u-lDNjGX-7">
          <mxGeometry relative="1" as="geometry">
            <mxPoint x="610" y="130" as="targetPoint" />
          </mxGeometry>
        </mxCell>
        <mxCell id="wlc8I1Woqjt-u-lDNjGX-2" value="Envronment" style="rounded=1;whiteSpace=wrap;html=1;" vertex="1" parent="1">
          <mxGeometry x="354" y="90" width="120" height="60" as="geometry" />
        </mxCell>
        <mxCell id="wlc8I1Woqjt-u-lDNjGX-3" value="ambientLight" style="rounded=1;whiteSpace=wrap;html=1;fillColor=#dae8fc;strokeColor=#6c8ebf;" vertex="1" parent="1">
          <mxGeometry x="354" y="190" width="120" height="60" as="geometry" />
        </mxCell>
        <mxCell id="wlc8I1Woqjt-u-lDNjGX-8" style="edgeStyle=orthogonalEdgeStyle;rounded=0;orthogonalLoop=1;jettySize=auto;html=1;" edge="1" parent="1" source="wlc8I1Woqjt-u-lDNjGX-7" target="wlc8I1Woqjt-u-lDNjGX-9">
          <mxGeometry relative="1" as="geometry">
            <mxPoint x="750" y="130" as="targetPoint" />
            <Array as="points">
              <mxPoint x="750" y="120" />
              <mxPoint x="750" y="50" />
            </Array>
          </mxGeometry>
        </mxCell>
        <mxCell id="wlc8I1Woqjt-u-lDNjGX-13" style="edgeStyle=orthogonalEdgeStyle;rounded=0;orthogonalLoop=1;jettySize=auto;html=1;" edge="1" parent="1" source="wlc8I1Woqjt-u-lDNjGX-7" target="wlc8I1Woqjt-u-lDNjGX-12">
          <mxGeometry relative="1" as="geometry" />
        </mxCell>
        <mxCell id="wlc8I1Woqjt-u-lDNjGX-15" style="edgeStyle=orthogonalEdgeStyle;rounded=0;orthogonalLoop=1;jettySize=auto;html=1;entryX=0;entryY=0.5;entryDx=0;entryDy=0;" edge="1" parent="1" source="wlc8I1Woqjt-u-lDNjGX-7" target="wlc8I1Woqjt-u-lDNjGX-10">
          <mxGeometry relative="1" as="geometry" />
        </mxCell>
        <mxCell id="wlc8I1Woqjt-u-lDNjGX-17" style="edgeStyle=orthogonalEdgeStyle;rounded=0;orthogonalLoop=1;jettySize=auto;html=1;entryX=0;entryY=0.5;entryDx=0;entryDy=0;" edge="1" parent="1" source="wlc8I1Woqjt-u-lDNjGX-7" target="wlc8I1Woqjt-u-lDNjGX-16">
          <mxGeometry relative="1" as="geometry" />
        </mxCell>
        <mxCell id="wlc8I1Woqjt-u-lDNjGX-7" value="group" style="rounded=1;whiteSpace=wrap;html=1;" vertex="1" parent="1">
          <mxGeometry x="530" y="90" width="120" height="60" as="geometry" />
        </mxCell>
        <mxCell id="wlc8I1Woqjt-u-lDNjGX-9" value="LightFormer" style="rounded=1;whiteSpace=wrap;html=1;" vertex="1" parent="1">
          <mxGeometry x="850" y="20" width="120" height="60" as="geometry" />
        </mxCell>
        <mxCell id="wlc8I1Woqjt-u-lDNjGX-10" value="LightFormer" style="rounded=1;whiteSpace=wrap;html=1;" vertex="1" parent="1">
          <mxGeometry x="850" y="180" width="120" height="60" as="geometry" />
        </mxCell>
        <mxCell id="wlc8I1Woqjt-u-lDNjGX-12" value="LightFormer" style="rounded=1;whiteSpace=wrap;html=1;" vertex="1" parent="1">
          <mxGeometry x="850" y="100" width="120" height="60" as="geometry" />
        </mxCell>
        <mxCell id="wlc8I1Woqjt-u-lDNjGX-16" value="LightFormer" style="rounded=1;whiteSpace=wrap;html=1;" vertex="1" parent="1">
          <mxGeometry x="850" y="260" width="120" height="60" as="geometry" />
        </mxCell>
        <mxCell id="wlc8I1Woqjt-u-lDNjGX-21" value="ContactShadows" style="rounded=1;whiteSpace=wrap;html=1;" vertex="1" parent="1">
          <mxGeometry x="354" y="350" width="120" height="60" as="geometry" />
        </mxCell>
        <mxCell id="wlc8I1Woqjt-u-lDNjGX-22" value="OrbitControls" style="rounded=1;whiteSpace=wrap;html=1;fillColor=#dae8fc;strokeColor=#6c8ebf;" vertex="1" parent="1">
          <mxGeometry x="354" y="270" width="120" height="60" as="geometry" />
        </mxCell>
        <mxCell id="wlc8I1Woqjt-u-lDNjGX-26" value="Grid" style="rounded=1;whiteSpace=wrap;html=1;" vertex="1" parent="1">
          <mxGeometry x="354" y="430" width="120" height="60" as="geometry" />
        </mxCell>
        <mxCell id="wlc8I1Woqjt-u-lDNjGX-31" style="edgeStyle=orthogonalEdgeStyle;rounded=0;orthogonalLoop=1;jettySize=auto;html=1;" edge="1" parent="1" source="wlc8I1Woqjt-u-lDNjGX-28" target="wlc8I1Woqjt-u-lDNjGX-30">
          <mxGeometry relative="1" as="geometry" />
        </mxCell>
        <mxCell id="wlc8I1Woqjt-u-lDNjGX-34" style="edgeStyle=orthogonalEdgeStyle;rounded=0;orthogonalLoop=1;jettySize=auto;html=1;entryX=0;entryY=0.5;entryDx=0;entryDy=0;" edge="1" parent="1" source="wlc8I1Woqjt-u-lDNjGX-28" target="wlc8I1Woqjt-u-lDNjGX-35">
          <mxGeometry relative="1" as="geometry">
            <mxPoint x="450" y="670" as="targetPoint" />
          </mxGeometry>
        </mxCell>
        <mxCell id="wlc8I1Woqjt-u-lDNjGX-28" value="Map" style="rounded=1;whiteSpace=wrap;html=1;fillColor=#ffe6cc;strokeColor=#d79b00;" vertex="1" parent="1">
          <mxGeometry x="354" y="510" width="120" height="60" as="geometry" />
        </mxCell>
        <mxCell id="wlc8I1Woqjt-u-lDNjGX-48" value="" style="edgeStyle=orthogonalEdgeStyle;rounded=0;orthogonalLoop=1;jettySize=auto;html=1;" edge="1" parent="1" source="wlc8I1Woqjt-u-lDNjGX-33" target="wlc8I1Woqjt-u-lDNjGX-47">
          <mxGeometry relative="1" as="geometry" />
        </mxCell>
        <mxCell id="wlc8I1Woqjt-u-lDNjGX-33" value="Base" style="rounded=1;whiteSpace=wrap;html=1;fillColor=#dae8fc;strokeColor=#6c8ebf;" vertex="1" parent="1">
          <mxGeometry x="707" y="600" width="120" height="60" as="geometry" />
        </mxCell>
        <mxCell id="wlc8I1Woqjt-u-lDNjGX-41" style="edgeStyle=orthogonalEdgeStyle;rounded=0;orthogonalLoop=1;jettySize=auto;html=1;" edge="1" parent="1" source="wlc8I1Woqjt-u-lDNjGX-35" target="wlc8I1Woqjt-u-lDNjGX-33">
          <mxGeometry relative="1" as="geometry" />
        </mxCell>
        <mxCell id="wlc8I1Woqjt-u-lDNjGX-43" style="edgeStyle=orthogonalEdgeStyle;rounded=0;orthogonalLoop=1;jettySize=auto;html=1;entryX=0;entryY=0.5;entryDx=0;entryDy=0;" edge="1" parent="1" source="wlc8I1Woqjt-u-lDNjGX-35" target="wlc8I1Woqjt-u-lDNjGX-42">
          <mxGeometry relative="1" as="geometry" />
        </mxCell>
        <mxCell id="wlc8I1Woqjt-u-lDNjGX-45" style="edgeStyle=orthogonalEdgeStyle;rounded=0;orthogonalLoop=1;jettySize=auto;html=1;entryX=0;entryY=0.5;entryDx=0;entryDy=0;" edge="1" parent="1" source="wlc8I1Woqjt-u-lDNjGX-35" target="wlc8I1Woqjt-u-lDNjGX-44">
          <mxGeometry relative="1" as="geometry" />
        </mxCell>
        <mxCell id="wlc8I1Woqjt-u-lDNjGX-35" value="group" style="rounded=1;whiteSpace=wrap;html=1;" vertex="1" parent="1">
          <mxGeometry x="530" y="600" width="120" height="60" as="geometry" />
        </mxCell>
        <mxCell id="wlc8I1Woqjt-u-lDNjGX-52" value="" style="edgeStyle=orthogonalEdgeStyle;rounded=0;orthogonalLoop=1;jettySize=auto;html=1;" edge="1" parent="1" source="wlc8I1Woqjt-u-lDNjGX-42" target="wlc8I1Woqjt-u-lDNjGX-51">
          <mxGeometry relative="1" as="geometry" />
        </mxCell>
        <mxCell id="wlc8I1Woqjt-u-lDNjGX-42" value="Mid" style="rounded=1;whiteSpace=wrap;html=1;fillColor=#dae8fc;strokeColor=#6c8ebf;" vertex="1" parent="1">
          <mxGeometry x="710" y="690" width="120" height="60" as="geometry" />
        </mxCell>
        <mxCell id="wlc8I1Woqjt-u-lDNjGX-56" value="" style="edgeStyle=orthogonalEdgeStyle;rounded=0;orthogonalLoop=1;jettySize=auto;html=1;" edge="1" parent="1" source="wlc8I1Woqjt-u-lDNjGX-44" target="wlc8I1Woqjt-u-lDNjGX-55">
          <mxGeometry relative="1" as="geometry" />
        </mxCell>
        <mxCell id="wlc8I1Woqjt-u-lDNjGX-58" value="" style="edgeStyle=orthogonalEdgeStyle;rounded=0;orthogonalLoop=1;jettySize=auto;html=1;entryX=0;entryY=0.5;entryDx=0;entryDy=0;" edge="1" parent="1" source="wlc8I1Woqjt-u-lDNjGX-44" target="wlc8I1Woqjt-u-lDNjGX-57">
          <mxGeometry relative="1" as="geometry" />
        </mxCell>
        <mxCell id="wlc8I1Woqjt-u-lDNjGX-61" value="" style="edgeStyle=orthogonalEdgeStyle;rounded=0;orthogonalLoop=1;jettySize=auto;html=1;entryX=0;entryY=0.5;entryDx=0;entryDy=0;" edge="1" parent="1" source="wlc8I1Woqjt-u-lDNjGX-44" target="wlc8I1Woqjt-u-lDNjGX-60">
          <mxGeometry relative="1" as="geometry" />
        </mxCell>
        <mxCell id="wlc8I1Woqjt-u-lDNjGX-63" style="edgeStyle=orthogonalEdgeStyle;rounded=0;orthogonalLoop=1;jettySize=auto;html=1;entryX=0;entryY=0.5;entryDx=0;entryDy=0;" edge="1" parent="1" source="wlc8I1Woqjt-u-lDNjGX-44" target="wlc8I1Woqjt-u-lDNjGX-62">
          <mxGeometry relative="1" as="geometry" />
        </mxCell>
        <mxCell id="wlc8I1Woqjt-u-lDNjGX-65" style="edgeStyle=orthogonalEdgeStyle;rounded=0;orthogonalLoop=1;jettySize=auto;html=1;entryX=0;entryY=0.5;entryDx=0;entryDy=0;" edge="1" parent="1" source="wlc8I1Woqjt-u-lDNjGX-44" target="wlc8I1Woqjt-u-lDNjGX-64">
          <mxGeometry relative="1" as="geometry" />
        </mxCell>
        <mxCell id="wlc8I1Woqjt-u-lDNjGX-44" value="Top" style="rounded=1;whiteSpace=wrap;html=1;fillColor=#f5f5f5;fontColor=#333333;strokeColor=#666666;" vertex="1" parent="1">
          <mxGeometry x="710" y="780" width="120" height="60" as="geometry" />
        </mxCell>
        <mxCell id="wlc8I1Woqjt-u-lDNjGX-50" value="" style="edgeStyle=orthogonalEdgeStyle;rounded=0;orthogonalLoop=1;jettySize=auto;html=1;" edge="1" parent="1" source="wlc8I1Woqjt-u-lDNjGX-47" target="wlc8I1Woqjt-u-lDNjGX-49">
          <mxGeometry relative="1" as="geometry" />
        </mxCell>
        <mxCell id="wlc8I1Woqjt-u-lDNjGX-47" value="group&lt;br&gt;" style="rounded=1;whiteSpace=wrap;html=1;fillColor=#dae8fc;strokeColor=#6c8ebf;" vertex="1" parent="1">
          <mxGeometry x="907" y="600" width="120" height="60" as="geometry" />
        </mxCell>
        <mxCell id="wlc8I1Woqjt-u-lDNjGX-49" value="mesh&lt;br&gt;" style="rounded=1;whiteSpace=wrap;html=1;fillColor=#dae8fc;strokeColor=#6c8ebf;" vertex="1" parent="1">
          <mxGeometry x="1107" y="600" width="120" height="60" as="geometry" />
        </mxCell>
        <mxCell id="wlc8I1Woqjt-u-lDNjGX-54" value="" style="edgeStyle=orthogonalEdgeStyle;rounded=0;orthogonalLoop=1;jettySize=auto;html=1;" edge="1" parent="1" source="wlc8I1Woqjt-u-lDNjGX-51" target="wlc8I1Woqjt-u-lDNjGX-53">
          <mxGeometry relative="1" as="geometry" />
        </mxCell>
        <mxCell id="wlc8I1Woqjt-u-lDNjGX-51" value="group&lt;br&gt;" style="rounded=1;whiteSpace=wrap;html=1;fillColor=#dae8fc;strokeColor=#6c8ebf;" vertex="1" parent="1">
          <mxGeometry x="910" y="690" width="120" height="60" as="geometry" />
        </mxCell>
        <mxCell id="wlc8I1Woqjt-u-lDNjGX-89" value="" style="edgeStyle=orthogonalEdgeStyle;rounded=0;orthogonalLoop=1;jettySize=auto;html=1;entryX=0;entryY=0.5;entryDx=0;entryDy=0;" edge="1" parent="1" source="wlc8I1Woqjt-u-lDNjGX-53" target="wlc8I1Woqjt-u-lDNjGX-88">
          <mxGeometry relative="1" as="geometry">
            <Array as="points">
              <mxPoint x="1260" y="730" />
              <mxPoint x="1260" y="800" />
            </Array>
          </mxGeometry>
        </mxCell>
        <mxCell id="wlc8I1Woqjt-u-lDNjGX-53" value="mesh&lt;br&gt;" style="rounded=1;whiteSpace=wrap;html=1;" vertex="1" parent="1">
          <mxGeometry x="1110" y="690" width="120" height="60" as="geometry" />
        </mxCell>
        <mxCell id="wlc8I1Woqjt-u-lDNjGX-55" value="bird" style="rounded=1;whiteSpace=wrap;html=1;fillColor=#f5f5f5;fontColor=#333333;strokeColor=#666666;" vertex="1" parent="1">
          <mxGeometry x="910" y="780" width="120" height="60" as="geometry" />
        </mxCell>
        <mxCell id="wlc8I1Woqjt-u-lDNjGX-57" value="flylines" style="rounded=1;whiteSpace=wrap;html=1;" vertex="1" parent="1">
          <mxGeometry x="910" y="860" width="120" height="60" as="geometry" />
        </mxCell>
        <mxCell id="wlc8I1Woqjt-u-lDNjGX-60" value="html-name" style="rounded=1;whiteSpace=wrap;html=1;" vertex="1" parent="1">
          <mxGeometry x="910" y="940" width="120" height="60" as="geometry" />
        </mxCell>
        <mxCell id="wlc8I1Woqjt-u-lDNjGX-76" style="edgeStyle=orthogonalEdgeStyle;rounded=0;orthogonalLoop=1;jettySize=auto;html=1;" edge="1" parent="1" source="wlc8I1Woqjt-u-lDNjGX-62" target="wlc8I1Woqjt-u-lDNjGX-75">
          <mxGeometry relative="1" as="geometry" />
        </mxCell>
        <mxCell id="wlc8I1Woqjt-u-lDNjGX-62" value="group&lt;br&gt;" style="rounded=1;whiteSpace=wrap;html=1;fillColor=#f5f5f5;fontColor=#333333;strokeColor=#666666;" vertex="1" parent="1">
          <mxGeometry x="910" y="1020" width="120" height="60" as="geometry" />
        </mxCell>
        <mxCell id="wlc8I1Woqjt-u-lDNjGX-64" value="group" style="rounded=1;whiteSpace=wrap;html=1;" vertex="1" parent="1">
          <mxGeometry x="910" y="1100" width="120" height="60" as="geometry" />
        </mxCell>
        <mxCell id="wlc8I1Woqjt-u-lDNjGX-70" value="" style="edgeStyle=orthogonalEdgeStyle;rounded=0;orthogonalLoop=1;jettySize=auto;html=1;" edge="1" parent="1" source="wlc8I1Woqjt-u-lDNjGX-66" target="wlc8I1Woqjt-u-lDNjGX-69">
          <mxGeometry relative="1" as="geometry" />
        </mxCell>
        <mxCell id="wlc8I1Woqjt-u-lDNjGX-67" value="" style="edgeStyle=orthogonalEdgeStyle;rounded=0;orthogonalLoop=1;jettySize=auto;html=1;" edge="1" parent="1" source="wlc8I1Woqjt-u-lDNjGX-64" target="wlc8I1Woqjt-u-lDNjGX-66">
          <mxGeometry relative="1" as="geometry" />
        </mxCell>
        <mxCell id="wlc8I1Woqjt-u-lDNjGX-72" value="" style="edgeStyle=orthogonalEdgeStyle;rounded=0;orthogonalLoop=1;jettySize=auto;html=1;" edge="1" parent="1" source="wlc8I1Woqjt-u-lDNjGX-69" target="wlc8I1Woqjt-u-lDNjGX-71">
          <mxGeometry relative="1" as="geometry" />
        </mxCell>
        <mxCell id="wlc8I1Woqjt-u-lDNjGX-74" value="" style="edgeStyle=orthogonalEdgeStyle;rounded=0;orthogonalLoop=1;jettySize=auto;html=1;entryX=0;entryY=0.5;entryDx=0;entryDy=0;" edge="1" parent="1" source="wlc8I1Woqjt-u-lDNjGX-69" target="wlc8I1Woqjt-u-lDNjGX-73">
          <mxGeometry relative="1" as="geometry" />
        </mxCell>
        <mxCell id="wlc8I1Woqjt-u-lDNjGX-69" value="mesh&lt;br&gt;" style="rounded=1;whiteSpace=wrap;html=1;" vertex="1" parent="1">
          <mxGeometry x="1280" y="1169" width="120" height="60" as="geometry" />
        </mxCell>
        <mxCell id="wlc8I1Woqjt-u-lDNjGX-71" value="meshPhysicalMaterial&lt;br&gt;" style="rounded=1;whiteSpace=wrap;html=1;" vertex="1" parent="1">
          <mxGeometry x="1480" y="1169" width="120" height="60" as="geometry" />
        </mxCell>
        <mxCell id="wlc8I1Woqjt-u-lDNjGX-73" value="Edges" style="rounded=1;whiteSpace=wrap;html=1;" vertex="1" parent="1">
          <mxGeometry x="1480" y="1260" width="120" height="60" as="geometry" />
        </mxCell>
        <mxCell id="wlc8I1Woqjt-u-lDNjGX-78" value="" style="group" vertex="1" connectable="0" parent="1">
          <mxGeometry x="1120" y="1010" width="130" height="70" as="geometry" />
        </mxCell>
        <mxCell id="wlc8I1Woqjt-u-lDNjGX-77" value="&#xa;&lt;h2 class=&quot;Heading__StyledHeading-sc-1c1dgg0-0 cgQnMS sr-only&quot; data-testid=&quot;screen-reader-heading&quot; id=&quot;sticky-breadcrumb-heading&quot; style=&quot;box-sizing: border-box; margin: 0px; font-size: 32px; font-weight: 600; position: absolute; width: 1px; height: 1px; padding: 0px; overflow: hidden; clip: rect(0px, 0px, 0px, 0px); overflow-wrap: normal; border: 0px; color: rgb(31, 35, 40); font-family: -apple-system, BlinkMacSystemFont, &amp;quot;Segoe UI&amp;quot;, &amp;quot;Noto Sans&amp;quot;, Helvetica, Arial, sans-serif, &amp;quot;Apple Color Emoji&amp;quot;, &amp;quot;Segoe UI Emoji&amp;quot;; font-style: normal; font-variant-ligatures: normal; font-variant-caps: normal; letter-spacing: normal; orphans: 2; text-align: start; text-indent: 0px; text-transform: none; widows: 2; word-spacing: 0px; -webkit-text-stroke-width: 0px; background-color: rgb(246, 248, 250); text-decoration-thickness: initial; text-decoration-style: initial; text-decoration-color: initial;&quot;&gt;Breadcrumbs&lt;/h2&gt;&lt;ol class=&quot;Box-sc-g0xbh4-0 cmAPIB&quot; style=&quot;box-sizing: border-box; padding-left: 0px; margin-top: 0px; margin-bottom: 0px; max-width: 100%; list-style: none; display: inline-block; color: rgb(31, 35, 40); font-family: -apple-system, BlinkMacSystemFont, &amp;quot;Segoe UI&amp;quot;, &amp;quot;Noto Sans&amp;quot;, Helvetica, Arial, sans-serif, &amp;quot;Apple Color Emoji&amp;quot;, &amp;quot;Segoe UI Emoji&amp;quot;; font-size: 14px; font-style: normal; font-variant-ligatures: normal; font-variant-caps: normal; font-weight: 400; letter-spacing: normal; orphans: 2; text-align: start; text-indent: 0px; text-transform: none; widows: 2; word-spacing: 0px; -webkit-text-stroke-width: 0px; background-color: rgb(246, 248, 250); text-decoration-thickness: initial; text-decoration-style: initial; text-decoration-color: initial;&quot;&gt;&lt;li class=&quot;Box-sc-g0xbh4-0 jwXCBK&quot; style=&quot;box-sizing: border-box; display: inline-block; max-width: 100%;&quot;&gt;3d-geoMap&lt;/li&gt;&lt;/ol&gt;&#xa;&#xa;" style="rounded=1;whiteSpace=wrap;html=1;fillColor=#f5f5f5;strokeColor=#666666;gradientColor=#b3b3b3;" vertex="1" parent="wlc8I1Woqjt-u-lDNjGX-78">
          <mxGeometry x="10" width="120" height="60" as="geometry" />
        </mxCell>
        <mxCell id="wlc8I1Woqjt-u-lDNjGX-75" value="group&lt;br&gt;" style="rounded=1;whiteSpace=wrap;html=1;fillColor=#f5f5f5;fontColor=#333333;strokeColor=#666666;" vertex="1" parent="wlc8I1Woqjt-u-lDNjGX-78">
          <mxGeometry y="10" width="120" height="60" as="geometry" />
        </mxCell>
        <mxCell id="wlc8I1Woqjt-u-lDNjGX-79" value="" style="group" vertex="1" connectable="0" parent="1">
          <mxGeometry x="1080" y="1160" width="130" height="69" as="geometry" />
        </mxCell>
        <mxCell id="wlc8I1Woqjt-u-lDNjGX-68" value="group" style="rounded=1;whiteSpace=wrap;html=1;" vertex="1" parent="wlc8I1Woqjt-u-lDNjGX-79">
          <mxGeometry x="10" width="120" height="60" as="geometry" />
        </mxCell>
        <mxCell id="wlc8I1Woqjt-u-lDNjGX-66" value="group" style="rounded=1;whiteSpace=wrap;html=1;" vertex="1" parent="wlc8I1Woqjt-u-lDNjGX-79">
          <mxGeometry y="9" width="120" height="60" as="geometry" />
        </mxCell>
        <mxCell id="wlc8I1Woqjt-u-lDNjGX-80" value="" style="group" vertex="1" connectable="0" parent="1">
          <mxGeometry x="530" y="500" width="130" height="70" as="geometry" />
        </mxCell>
        <mxCell id="wlc8I1Woqjt-u-lDNjGX-32" value="" style="rounded=1;whiteSpace=wrap;html=1;fillColor=#dae8fc;strokeColor=#6c8ebf;gradientColor=#7ea6e0;" vertex="1" parent="wlc8I1Woqjt-u-lDNjGX-80">
          <mxGeometry x="10" width="120" height="60" as="geometry" />
        </mxCell>
        <mxCell id="wlc8I1Woqjt-u-lDNjGX-30" value="Province&lt;br&gt;" style="rounded=1;whiteSpace=wrap;html=1;fillColor=#dae8fc;strokeColor=#6c8ebf;" vertex="1" parent="wlc8I1Woqjt-u-lDNjGX-80">
          <mxGeometry y="10" width="120" height="60" as="geometry" />
        </mxCell>
        <mxCell id="wlc8I1Woqjt-u-lDNjGX-82" value="text3d" style="rounded=1;whiteSpace=wrap;html=1;fillColor=#f5f5f5;strokeColor=#666666;fontColor=#333333;" vertex="1" parent="1">
          <mxGeometry x="1310" y="1020" width="120" height="60" as="geometry" />
        </mxCell>
        <mxCell id="wlc8I1Woqjt-u-lDNjGX-81" style="edgeStyle=orthogonalEdgeStyle;rounded=0;orthogonalLoop=1;jettySize=auto;html=1;" edge="1" parent="1" source="wlc8I1Woqjt-u-lDNjGX-75" target="wlc8I1Woqjt-u-lDNjGX-82">
          <mxGeometry relative="1" as="geometry">
            <mxPoint x="1330" y="1050" as="targetPoint" />
          </mxGeometry>
        </mxCell>
        <mxCell id="wlc8I1Woqjt-u-lDNjGX-86" value="FBO" style="rounded=1;whiteSpace=wrap;html=1;" vertex="1" parent="1">
          <mxGeometry x="1450" y="690" width="120" height="60" as="geometry" />
        </mxCell>
        <mxCell id="wlc8I1Woqjt-u-lDNjGX-90" style="edgeStyle=orthogonalEdgeStyle;rounded=0;orthogonalLoop=1;jettySize=auto;html=1;entryX=0;entryY=0.5;entryDx=0;entryDy=0;" edge="1" parent="1" source="wlc8I1Woqjt-u-lDNjGX-88" target="wlc8I1Woqjt-u-lDNjGX-86">
          <mxGeometry relative="1" as="geometry" />
        </mxCell>
        <mxCell id="wlc8I1Woqjt-u-lDNjGX-88" value="&lt;div style=&quot;font-size: 14px; line-height: 19px;&quot;&gt;MeshTransmissionMaterial&lt;/div&gt;" style="rounded=1;whiteSpace=wrap;html=1;" vertex="1" parent="1">
          <mxGeometry x="1290" y="770" width="120" height="60" as="geometry" />
        </mxCell>
      </root>
    </mxGraphModel>
  </diagram>
</mxfile>
